<svg width="271" height="256" viewBox="0 0 271 256" fill="none" xmlns="http://www.w3.org/2000/svg">
  <path d="M165.759 0C163.908 0 162.189 0.398242 160.603 0.929202C163.974 3.18583 165.825 6.17258 166.75 9.55752C166.816 10.0221 166.948 10.354 167.015 10.8186C167.081 11.2168 167.147 11.615 167.147 12.0133C167.411 17.854 165.626 18.5841 164.371 22.0354C162.454 26.4823 162.983 31.2611 165.296 35.1106C165.494 35.5752 165.759 36.1062 166.089 36.5708C163.577 19.7788 177.524 17.2566 180.102 12.0133C180.3 7.43362 176.533 4.38053 173.558 2.25663C170.716 0.530974 168.138 0 165.759 0ZM186.778 3.78319C186.513 5.30973 186.712 4.9115 186.646 5.70797C186.58 6.23893 186.58 6.90266 186.514 7.43362C186.382 7.9646 186.249 8.49556 186.051 9.02656C185.919 9.55752 185.721 10.0885 185.522 10.6195C185.258 11.1505 185.06 11.615 184.795 12.146C184.597 12.4116 184.465 12.677 184.266 12.9425C184.134 13.1416 184.002 13.3407 183.87 13.5398C183.539 14.0044 183.209 14.469 182.878 14.8672C182.482 15.2655 182.151 15.7301 181.689 16.062C181.689 16.1284 181.689 16.1284 181.689 16.1284C181.292 16.4603 180.895 16.8585 180.433 17.1903C179.045 18.2523 177.458 19.0487 176.004 20.0443C175.541 20.3762 175.079 20.6417 174.682 21.0399C174.219 21.3718 173.823 21.7036 173.426 22.1018C172.964 22.5001 172.633 22.8983 172.236 23.3629C171.906 23.7612 171.509 24.2257 171.245 24.6904C170.915 25.1549 170.584 25.6196 170.32 26.0841C170.055 26.6151 169.857 27.0797 169.593 27.6107C169.394 28.1417 169.196 28.6063 169.064 29.1372C168.866 29.7346 168.733 30.2656 168.601 30.7965C168.535 31.0621 168.535 31.3939 168.469 31.6594C168.403 31.925 168.403 32.1903 168.337 32.4558C168.337 32.9868 168.271 33.5842 168.271 34.1151C168.271 34.5134 168.271 34.9116 168.337 35.3098C168.337 35.8408 168.403 36.3717 168.535 36.9691C168.601 37.5001 168.733 38.031 168.866 38.562C169.064 39.093 169.196 39.624 169.394 40.1549C169.527 40.4868 169.725 40.8187 169.857 41.0841L154.655 35.1771C152.077 34.447 149.565 33.7833 146.987 33.1859C145.599 32.8541 144.211 32.5222 142.823 32.1903C138.857 31.3939 134.825 30.7966 130.793 30.3983C130.661 30.3983 130.595 30.3319 130.463 30.3319C126.497 29.9336 122.597 29.7345 118.631 29.7345C115.723 29.7345 112.815 29.8672 109.972 30.0664C105.94 30.332 101.908 30.8628 97.8764 31.5265C96.8849 31.6592 95.8935 31.8584 94.902 32.0575C92.853 32.4557 90.87 32.9204 88.9532 33.385C87.9617 33.6506 86.9702 33.9159 85.9787 34.1814C84.9873 34.5796 84.0619 35.0443 83.1365 35.4425C82.4095 35.7743 81.6824 36.1062 80.9553 36.4381C80.8232 36.5045 80.6908 36.5045 80.6248 36.5707C79.9638 36.9026 79.3689 37.168 78.7741 37.4999C78.5758 37.5664 78.4436 37.6325 78.3114 37.699C77.5843 38.0309 76.8572 38.4291 76.2624 38.761C75.7997 38.9601 75.337 39.2256 74.9404 39.4247C74.7421 39.5573 74.4777 39.6903 74.3455 39.7565C73.7506 40.0884 73.1557 40.4202 72.627 40.7521C72.0321 41.084 71.5033 41.4158 71.0406 41.7477C70.5779 42.0795 70.1152 42.345 69.7186 42.6769C69.6524 42.7433 69.5865 42.7433 69.5203 42.8095C69.1237 43.0751 68.6611 43.4069 68.2645 43.7387C68.2645 43.7387 68.1983 43.8052 68.1324 43.8714C67.8019 44.137 67.4714 44.4023 67.1409 44.6678C67.0088 44.7343 66.8764 44.8669 66.7443 44.9334C66.4138 45.199 66.0834 45.5308 65.7529 45.7963C65.6867 45.9289 65.5546 45.9954 65.4884 46.0619C65.0918 46.4601 64.6952 46.7919 64.2986 47.1902C64.2324 47.1902 64.2324 47.2566 64.1665 47.3228C63.7699 47.6547 63.3733 48.0529 62.9767 48.4511C62.9105 48.5176 62.9105 48.5838 62.8446 48.5838C62.5142 48.9156 62.1837 49.2475 61.8532 49.6457C61.7211 49.7783 61.5227 49.9113 61.3905 50.0439C61.06 50.4422 60.6634 50.8404 60.2668 51.2386C60.2006 51.3713 60.0685 51.4377 60.0023 51.5705C59.4736 52.1015 59.0109 52.6324 58.4821 53.1634C58.4159 53.2299 58.35 53.296 58.2838 53.3625C57.2262 54.4908 56.1025 55.6192 54.9128 56.6147C53.723 57.6767 52.4672 58.6722 51.2113 59.5351C49.8893 60.4643 48.6335 61.2607 47.2454 62.0572C45.9234 62.7873 44.5354 63.451 43.0812 64.0484C41.6932 64.6457 40.239 65.1767 38.7849 65.6413C36.0087 66.2386 33.1665 67.3669 30.7209 67.566C30.1921 67.566 29.5972 67.6987 29.0684 67.7651C28.4736 67.8978 27.9448 68.0307 27.416 68.1634C26.8872 68.3625 26.3584 68.5616 25.8296 68.7607C25.3009 68.9598 24.7721 69.2253 24.2433 69.4908C23.7806 69.8227 23.2518 70.0882 22.7891 70.42C22.3265 70.7519 21.8638 71.1501 21.4672 71.5483C21.0045 71.8802 20.5418 72.3448 20.1452 72.743C19.7486 73.2077 19.352 73.6059 19.0215 74.0704C18.6911 74.6014 18.2945 75.066 18.0301 75.597C17.6996 76.0616 17.3691 76.5926 17.1047 77.1235C16.8402 77.7209 16.5759 78.2519 16.3776 78.8492C16.1793 79.3802 15.981 79.9775 15.7827 80.5749C15.6506 81.1059 15.5182 81.6368 15.4523 82.1678C15.4523 82.2343 15.3861 82.3004 15.3861 82.3669C15.254 82.9643 15.254 83.7607 15.1878 84.159C15.1216 84.6236 15.0557 85.0218 15.0557 85.4864C15.0557 85.752 15.0557 86.0837 15.1219 86.3492C15.1881 86.8138 15.254 87.2121 15.3864 87.6103C15.5185 88.0085 15.6509 88.4067 15.849 88.805C15.849 88.8714 15.849 88.8714 15.849 88.8714C16.0473 89.2697 16.3117 89.6679 16.5761 90.0661C16.8406 90.4644 17.1049 90.8626 17.4354 91.2609C17.7659 91.5927 18.1625 91.9909 18.5591 92.3228C18.9557 92.721 19.3522 93.0529 19.8149 93.3847C21.4013 94.7785 21.7979 95.2431 23.8469 96.3051C24.1774 96.5042 24.5079 96.6369 24.9045 96.8361C24.9707 96.8361 25.0366 96.9025 25.1028 96.9025C25.1028 97.0351 25.1028 97.1016 25.169 97.2344C25.2352 97.7654 25.3673 98.2963 25.4995 98.8273C25.6316 99.4247 25.83 99.9557 26.0283 100.42C26.2266 100.818 26.3588 101.217 26.5571 101.615C26.6233 101.748 26.6892 101.881 26.7554 101.947C27.0199 102.478 27.2841 102.942 27.5485 103.407C27.879 103.872 28.2095 104.336 28.54 104.801C28.8705 105.199 29.2671 105.664 29.6637 106.062C30.0602 106.46 30.4568 106.792 30.9195 107.19C30.9195 107.19 30.9857 107.257 31.0516 107.257C31.4482 107.589 31.8448 107.92 32.2414 108.186C32.7041 108.518 33.1668 108.783 33.6955 109.049C34.1582 109.314 34.687 109.58 35.2158 109.779C35.6124 109.978 36.0751 110.111 36.5378 110.243C36.604 110.31 36.6699 110.31 36.8023 110.376C37.0668 110.443 37.3971 110.509 37.6615 110.575C37.4632 114.159 37.397 117.544 37.926 118.739C38.5209 120.066 41.4292 116.018 44.3375 111.372C43.9409 115.951 43.6765 121.327 44.3375 122.92C45.0646 124.58 49.0305 119.403 52.4676 113.695C99.3311 102.81 142.097 135.332 146.591 181.261C145.732 174.093 136.941 170.111 132.909 171.106C130.926 176.018 127.555 182.323 122.135 186.239C122.598 181.858 122.399 177.345 121.474 172.965C120.02 179.071 117.178 184.779 113.278 189.69C106.998 190.155 100.719 187.102 97.4142 182.522C97.1497 182.323 97.0837 181.925 96.8854 181.659C96.6871 181.195 96.4889 180.73 96.3567 180.265C96.1584 179.801 96.0262 179.336 95.9601 178.872C95.8939 178.407 95.8939 177.942 95.8939 177.411C95.8939 177.08 95.8939 176.748 95.8939 176.416C95.9601 175.951 96.0922 175.487 96.2243 175.022C96.3564 174.557 96.4888 174.093 96.687 173.628C96.9515 173.164 97.1497 172.699 97.4802 172.234C98.6039 169.049 98.6039 166.46 96.5549 164.934C96.1583 164.668 95.7617 164.469 95.299 164.27C95.0345 164.203 94.7041 164.071 94.4397 164.004C94.2414 163.938 94.1092 163.872 93.9109 163.805C93.4482 163.672 92.9855 163.54 92.5229 163.473C92.0602 163.341 91.5975 163.274 91.1348 163.274C90.6721 163.208 90.1433 163.142 89.6807 163.142C89.3502 163.142 89.0197 163.208 88.6892 163.208C88.1604 163.208 87.6977 163.275 87.235 163.407C86.7723 163.474 86.3097 163.54 85.847 163.673C85.3843 163.805 84.9216 163.938 84.4589 164.137C83.9962 164.336 83.5996 164.536 83.1369 164.735C82.7404 164.934 82.3438 165.199 81.8811 165.398C66.4802 175.487 75.6679 199.115 86.1774 205.951C82.2116 206.681 78.1796 207.544 77.0559 208.407C76.9897 208.474 76.9239 208.54 76.9239 208.54C79.7661 210.265 82.7405 211.726 85.8471 212.987C90.0773 214.38 94.572 215.642 96.555 216.173V216.239C102.041 217.367 107.593 217.766 113.212 217.434C142.493 215.376 166.487 193.009 170.849 163.54C170.981 164.137 171.114 164.668 171.246 165.266C171.444 166.46 171.708 167.721 171.841 168.982C171.841 168.982 171.841 168.982 171.841 169.049C171.973 169.646 172.039 170.244 172.105 170.775C172.105 170.907 172.105 170.974 172.105 171.04C172.171 171.638 172.237 172.235 172.237 172.766C172.303 173.496 172.369 174.226 172.369 174.956C172.369 175.288 172.369 175.62 172.369 176.018C172.369 176.35 172.436 176.748 172.436 177.08C172.436 177.478 172.369 177.876 172.369 178.275C172.369 178.607 172.369 178.938 172.369 179.204C172.369 179.669 172.303 180.067 172.303 180.531C172.303 180.797 172.303 181.062 172.237 181.394C172.237 181.859 172.171 182.323 172.171 182.854C172.104 183.053 172.104 183.253 172.104 183.452C172.038 183.983 171.972 184.447 171.906 184.978C171.906 185.177 171.906 185.376 171.84 185.576C171.774 186.239 171.642 186.837 171.575 187.5V187.567V187.633C171.443 188.231 171.311 188.894 171.179 189.492C171.179 189.558 171.179 189.624 171.179 189.691C171.047 190.288 170.914 190.886 170.782 191.483C170.782 191.549 170.716 191.682 170.716 191.748C170.584 192.346 170.452 192.943 170.253 193.541C170.253 193.607 170.253 193.673 170.253 193.74C170.055 194.403 169.857 195.001 169.725 195.598C169.658 195.664 169.658 195.731 169.658 195.731C169.46 196.394 169.262 197.058 169.064 197.722C168.799 198.386 168.601 198.983 168.336 199.647C168.072 200.31 167.874 200.974 167.609 201.571C167.345 202.235 167.081 202.832 166.816 203.496H166.75C166.485 204.094 166.221 204.757 165.891 205.355C165.824 205.554 165.759 205.686 165.692 205.819C165.626 205.886 165.626 205.952 165.56 206.018C161.264 214.713 154.918 222.346 146.987 228.319C146.458 228.651 145.929 229.049 145.4 229.447C145.268 229.58 145.07 229.647 144.938 229.779C144.475 230.111 144.012 230.443 143.484 230.775L143.682 231.173H143.748C144.673 231.041 145.599 230.908 146.524 230.775H146.59C148.309 230.509 150.027 230.178 151.746 229.846C152.209 229.779 152.737 229.647 153.2 229.514C153.531 229.447 153.795 229.381 154.125 229.315C154.588 229.248 155.051 229.116 155.514 229.049C155.91 228.917 156.307 228.85 156.703 228.717C163.313 227.124 169.725 224.934 175.872 222.346C165.362 236.748 151.283 248.363 134.825 255.996C142.426 255.465 150.027 254.204 157.364 252.08C184.002 244.182 206.409 226.195 219.827 201.969C217.117 217.301 211.036 231.903 202.047 244.646C208.458 240.399 214.341 235.487 219.695 229.912C234.501 214.381 244.217 194.669 247.522 173.496C249.769 183.983 250.43 194.801 249.439 205.487C297.162 138.651 253.405 69.3589 235.096 51.1067C235.029 50.9741 234.964 50.9076 234.964 50.7749C234.897 50.8414 234.897 50.8414 234.897 50.9075C234.897 50.8411 234.897 50.8411 234.831 50.7749C234.831 51.5714 234.765 52.3678 234.699 53.1643C234.501 54.6908 234.302 56.151 234.038 57.6112C233.707 59.0713 233.311 60.5315 232.914 61.9917C232.452 63.3855 231.923 64.8457 231.328 66.2395C230.733 67.5669 230.072 68.9607 229.345 70.2882C228.618 71.5492 227.825 72.8766 226.965 74.0713C226.106 75.3324 225.181 76.5271 224.255 77.6554C223.264 78.8501 222.206 79.912 221.149 80.974C220.488 81.5713 219.893 82.1023 219.232 82.6333C218.703 83.0979 218.241 83.4961 217.712 83.9607C216.522 84.8899 215.332 85.7527 214.01 86.5492C212.754 87.3456 211.432 88.1421 210.11 88.8058C208.722 89.4696 207.334 90.0669 205.946 90.6642C204.558 91.1952 203.104 91.6598 201.65 92.0581C200.196 92.4563 198.676 92.7881 197.221 93.0536C195.701 93.3192 194.181 93.4518 192.727 93.5846C191.669 93.6511 190.612 93.7173 189.554 93.7173C188.034 93.7173 186.513 93.5846 185.059 93.4517C183.539 93.319 182.019 93.1198 180.565 92.7879C179.044 92.5223 177.59 92.1242 176.136 91.6596H176.07C177.524 91.527 178.978 91.394 180.432 91.1286C181.953 90.863 183.407 90.5313 184.861 90.133C186.315 89.7348 187.769 89.2702 189.157 88.7392C190.611 88.2083 192 87.5446 193.321 86.8808C194.71 86.2171 195.965 85.487 197.287 84.6906C198.543 83.8277 199.799 82.9649 200.989 82.0357C202.179 81.1065 203.302 80.1109 204.36 79.049C205.484 78.0534 206.475 76.9251 207.466 75.7968C208.458 74.6021 209.383 73.4074 210.243 72.2127C210.375 72.0136 210.507 71.7481 210.639 71.549C211.3 70.487 211.961 69.4251 212.556 68.3631C213.283 67.0357 213.944 65.7083 214.539 64.3145C215.134 62.9207 215.663 61.5269 216.125 60.0667C216.588 58.6729 216.918 57.2127 217.249 55.7526C217.513 54.226 217.778 52.7658 217.91 51.3056C218.042 49.7791 218.174 48.2525 218.174 46.7924C218.174 45.7304 218.108 44.6685 218.042 43.6065C217.91 42.08 217.712 40.6198 217.514 39.1596C217.249 37.6331 216.919 36.1729 216.522 34.7127C216.059 33.3189 215.597 31.8588 215.068 30.465C214.539 29.0711 213.878 27.6773 213.217 26.3499C212.49 25.0225 211.763 23.695 210.97 22.434C210.111 21.1729 209.251 19.9782 208.326 18.7835C207.334 17.6552 206.343 16.5269 205.285 15.3986C204.757 14.8676 204.162 14.2703 203.567 13.7393C200.592 11.4163 197.486 9.22602 194.379 7.23488C193.917 6.9693 193.52 6.77027 193.057 6.57115C190.876 5.17736 188.827 4.44725 186.778 3.78355L186.778 3.78319Z" fill="#AD0000" />
  <path d="M150.703 0C148.852 0 147.134 0.398242 145.547 0.929202C148.918 3.18583 150.769 6.17258 151.695 9.55752C151.761 10.0221 151.893 10.354 151.959 10.8186C152.025 11.2168 152.091 11.615 152.091 12.0133C152.356 17.854 150.571 18.5841 149.315 22.0354C147.398 26.4823 147.927 31.2611 150.24 35.1106C150.439 35.5752 150.703 36.1062 151.034 36.5708C148.522 19.7788 162.468 17.2566 165.046 12.0133C165.245 7.43362 161.477 4.38053 158.503 2.25663C155.66 0.530974 153.083 0 150.703 0ZM171.722 3.78319C171.458 5.30973 171.656 4.9115 171.59 5.70797C171.524 6.23893 171.524 6.90266 171.458 7.43362C171.326 7.9646 171.194 8.49556 170.995 9.02656C170.863 9.55752 170.665 10.0885 170.467 10.6195C170.202 11.1505 170.004 11.615 169.739 12.146C169.541 12.4116 169.409 12.677 169.211 12.9425C169.079 13.1416 168.946 13.3407 168.814 13.5398C168.484 14.0044 168.153 14.469 167.823 14.8672C167.426 15.2655 167.096 15.7301 166.633 16.062C166.633 16.1284 166.633 16.1284 166.633 16.1284C166.236 16.4603 165.84 16.8585 165.377 17.1903C163.989 18.2523 162.403 19.0487 160.948 20.0443C160.486 20.3762 160.023 20.6417 159.626 21.0399C159.164 21.3718 158.767 21.7036 158.371 22.1018C157.908 22.5001 157.577 22.8983 157.181 23.3629C156.85 23.7612 156.454 24.2257 156.189 24.6904C155.859 25.1549 155.528 25.6196 155.264 26.0841C154.999 26.6151 154.801 27.0797 154.537 27.6107C154.339 28.1417 154.14 28.6063 154.008 29.1372C153.81 29.7346 153.678 30.2656 153.545 30.7965C153.479 31.0621 153.479 31.3939 153.413 31.6594C153.347 31.925 153.347 32.1903 153.281 32.4558C153.281 32.9868 153.215 33.5842 153.215 34.1151C153.215 34.5134 153.215 34.9116 153.281 35.3098C153.281 35.8408 153.347 36.3717 153.48 36.9691C153.546 37.5001 153.678 38.031 153.81 38.562C154.008 39.093 154.141 39.624 154.339 40.1549C154.471 40.4868 154.669 40.8187 154.802 41.0841L139.599 35.1771C137.021 34.447 134.509 33.7833 131.932 33.1859C130.544 32.8541 129.155 32.5222 127.767 32.1903C123.802 31.3939 119.77 30.7966 115.738 30.3983C115.605 30.3983 115.539 30.3319 115.407 30.3319C111.441 29.9336 107.541 29.7345 103.576 29.7345C100.667 29.7345 97.7589 29.8672 94.9167 30.0664C90.8847 30.332 86.8527 30.8628 82.8207 31.5265C81.8293 31.6592 80.8378 31.8584 79.8463 32.0575C77.7973 32.4557 75.8144 32.9204 73.8975 33.385C72.906 33.6506 71.9146 33.9159 70.9231 34.1814C69.9316 34.5796 69.0063 35.0443 68.0809 35.4425C67.3538 35.7743 66.6267 36.1062 65.8996 36.4381C65.7675 36.5045 65.6351 36.5045 65.5692 36.5707C64.9082 36.9026 64.3133 37.168 63.7184 37.4999C63.5201 37.5664 63.3879 37.6325 63.2557 37.699C62.5286 38.0309 61.8016 38.4291 61.2067 38.761C60.744 38.9601 60.2813 39.2256 59.8847 39.4247C59.6864 39.5573 59.422 39.6903 59.2898 39.7565C58.695 40.0884 58.1001 40.4202 57.5713 40.7521C56.9764 41.084 56.4476 41.4158 55.9849 41.7477C55.5223 42.0795 55.0596 42.345 54.663 42.6769C54.5967 42.7433 54.5309 42.7433 54.4647 42.8095C54.0681 43.0751 53.6054 43.4069 53.2088 43.7387C53.2088 43.7387 53.1426 43.8052 53.0767 43.8714C52.7462 44.137 52.4157 44.4023 52.0852 44.6678C51.9532 44.7343 51.8208 44.8669 51.6887 44.9334C51.3582 45.199 51.0277 45.5308 50.6972 45.7963C50.631 45.9289 50.4989 45.9954 50.4327 46.0619C50.0361 46.4601 49.6395 46.7919 49.2429 47.1902C49.1767 47.1902 49.1767 47.2566 49.1108 47.3228C48.7143 47.6547 48.3177 48.0529 47.9211 48.4511C47.8549 48.5176 47.8549 48.5838 47.789 48.5838C47.4585 48.9156 47.128 49.2475 46.7975 49.6457C46.6654 49.7783 46.467 49.9113 46.3348 50.0439C46.0044 50.4422 45.6078 50.8404 45.2112 51.2386C45.145 51.3713 45.0129 51.4377 44.9467 51.5705C44.4179 52.1015 43.9552 52.6324 43.4264 53.1634C43.3602 53.2299 43.2943 53.296 43.2281 53.3625C42.1705 54.4908 41.0469 55.6192 39.8571 56.6147C38.6674 57.6767 37.4115 58.6722 36.1556 59.5351C34.8337 60.4643 33.5778 61.2607 32.1897 62.0572C30.8678 62.7873 29.4797 63.451 28.0256 64.0484C26.6375 64.6457 25.1834 65.1767 23.7292 65.6413C20.9531 66.2386 18.1108 67.3669 15.6652 67.566C15.1364 67.566 14.5416 67.6987 14.0128 67.7651C13.4179 67.8978 12.8891 68.0307 12.3603 68.1634C11.8316 68.3625 11.3028 68.5616 10.774 68.7607C10.2452 68.9598 9.71642 69.2253 9.18764 69.4908C8.72494 69.8227 8.19616 70.0882 7.73346 70.42C7.27079 70.7519 6.80809 71.1501 6.4115 71.5483C5.94883 71.8802 5.48613 72.3448 5.08954 72.743C4.69295 73.2077 4.29636 73.6059 3.96588 74.0704C3.6354 74.6014 3.2388 75.066 2.9744 75.597C2.64392 76.0616 2.31343 76.5926 2.04903 77.1235C1.78453 77.7209 1.52025 78.2519 1.32196 78.8492C1.12366 79.3802 0.925365 79.9775 0.72707 80.5749C0.594977 81.1059 0.462572 81.6368 0.396588 82.1678C0.396588 82.2343 0.330388 82.3004 0.330388 82.3669C0.198294 82.9643 0.198294 83.7607 0.132092 84.159C0.0658922 84.6236 0 85.0218 0 85.4864C0 85.752 0 86.0837 0.0661997 86.3492C0.132399 86.8138 0.198291 87.2121 0.330697 87.6103C0.46279 88.0085 0.595195 88.4067 0.793366 88.805C0.793366 88.8714 0.793366 88.8714 0.793366 88.8714C0.991662 89.2697 1.25607 89.6679 1.52044 90.0661C1.78494 90.4644 2.04925 90.8626 2.37973 91.2609C2.71021 91.5927 3.1068 91.9909 3.50339 92.3228C3.89999 92.721 4.29658 93.0529 4.75925 93.3847C6.34561 94.7785 6.7422 95.2431 8.79124 96.3051C9.12172 96.5042 9.45223 96.6369 9.84882 96.8361C9.91504 96.8361 9.98092 96.9025 10.0471 96.9025C10.0471 97.0351 10.0471 97.1016 10.1133 97.2344C10.1795 97.7654 10.3116 98.2963 10.4438 98.8273C10.5759 99.4247 10.7743 99.9557 10.9726 100.42C11.1709 100.818 11.3031 101.217 11.5014 101.615C11.5676 101.748 11.6335 101.881 11.6997 101.947C11.9642 102.478 12.2285 102.942 12.4928 103.407C12.8234 103.872 13.1538 104.336 13.4843 104.801C13.8148 105.199 14.2114 105.664 14.608 106.062C15.0046 106.46 15.4012 106.792 15.8639 107.19C15.8639 107.19 15.9301 107.257 15.996 107.257C16.3926 107.589 16.7891 107.92 17.1857 108.186C17.6484 108.518 18.1111 108.783 18.6399 109.049C19.1026 109.314 19.6314 109.58 20.1601 109.779C20.5567 109.978 21.0194 110.111 21.4821 110.243C21.5483 110.31 21.6142 110.31 21.7466 110.376C22.0111 110.443 22.3415 110.509 22.6059 110.575C22.4076 114.159 22.3414 117.544 22.8704 118.739C23.4652 120.066 26.3735 116.018 29.2819 111.372C28.8853 115.951 28.6209 121.327 29.2819 122.92C30.0089 124.58 33.9748 119.403 37.4119 113.695C84.2754 102.81 127.041 135.332 131.536 181.261C130.676 174.093 121.885 170.111 117.853 171.106C115.87 176.018 112.499 182.323 107.079 186.239C107.542 181.858 107.344 177.345 106.418 172.965C104.964 179.071 102.122 184.779 98.2221 189.69C91.9428 190.155 85.6635 187.102 82.3586 182.522C82.0941 182.323 82.0281 181.925 81.8298 181.659C81.6315 181.195 81.4332 180.73 81.301 180.265C81.1027 179.801 80.9705 179.336 80.9044 178.872C80.8382 178.407 80.8382 177.942 80.8382 177.411C80.8382 177.08 80.8382 176.748 80.8382 176.416C80.9044 175.951 81.0365 175.487 81.1687 175.022C81.3008 174.557 81.4332 174.093 81.6314 173.628C81.8959 173.164 82.094 172.699 82.4246 172.234C83.5482 169.049 83.5482 166.46 81.4992 164.934C81.1026 164.668 80.706 164.469 80.2433 164.27C79.9788 164.203 79.6484 164.071 79.384 164.004C79.1858 163.938 79.0536 163.872 78.8553 163.805C78.3926 163.672 77.9299 163.54 77.4672 163.473C77.0045 163.341 76.5418 163.274 76.0791 163.274C75.6165 163.208 75.0877 163.142 74.625 163.142C74.2945 163.142 73.964 163.208 73.6335 163.208C73.1047 163.208 72.642 163.275 72.1794 163.407C71.7167 163.474 71.254 163.54 70.7913 163.673C70.3286 163.805 69.8659 163.938 69.4032 164.137C68.9406 164.336 68.544 164.536 68.0813 164.735C67.6847 164.934 67.2881 165.199 66.8254 165.398C51.4246 175.487 60.6122 199.115 71.1218 205.951C67.1559 206.681 63.1239 207.544 62.0003 208.407C61.9341 208.474 61.8682 208.54 61.8682 208.54C64.7104 210.265 67.6848 211.726 70.7914 212.987C75.0217 214.38 79.5163 215.642 81.4993 216.173V216.239C86.9854 217.367 92.5377 217.766 98.156 217.434C127.437 215.376 151.431 193.009 155.794 163.54C155.926 164.137 156.058 164.668 156.19 165.266C156.388 166.46 156.653 167.721 156.785 168.982C156.785 168.982 156.785 168.982 156.785 169.049C156.917 169.646 156.983 170.244 157.049 170.775C157.049 170.907 157.049 170.974 157.049 171.04C157.116 171.638 157.182 172.235 157.182 172.766C157.248 173.496 157.314 174.226 157.314 174.956C157.314 175.288 157.314 175.62 157.314 176.018C157.314 176.35 157.38 176.748 157.38 177.08C157.38 177.478 157.314 177.876 157.314 178.275C157.314 178.607 157.314 178.938 157.314 179.204C157.314 179.669 157.247 180.067 157.247 180.531C157.247 180.797 157.247 181.062 157.181 181.394C157.181 181.859 157.115 182.323 157.115 182.854C157.049 183.053 157.049 183.253 157.049 183.452C156.983 183.983 156.917 184.447 156.85 184.978C156.85 185.177 156.85 185.376 156.784 185.576C156.718 186.239 156.586 186.837 156.52 187.5V187.567V187.633C156.388 188.231 156.255 188.894 156.123 189.492C156.123 189.558 156.123 189.624 156.123 189.691C155.991 190.288 155.859 190.886 155.727 191.483C155.727 191.549 155.66 191.682 155.66 191.748C155.528 192.346 155.396 192.943 155.198 193.541C155.198 193.607 155.198 193.673 155.198 193.74C154.999 194.403 154.801 195.001 154.669 195.598C154.603 195.664 154.603 195.731 154.603 195.731C154.404 196.394 154.206 197.058 154.008 197.722C153.743 198.386 153.545 198.983 153.281 199.647C153.016 200.31 152.818 200.974 152.554 201.571C152.289 202.235 152.025 202.832 151.761 203.496H151.694C151.43 204.094 151.165 204.757 150.835 205.355C150.769 205.554 150.703 205.686 150.637 205.819C150.57 205.886 150.57 205.952 150.505 206.018C146.208 214.713 139.863 222.346 131.931 228.319C131.402 228.651 130.873 229.049 130.345 229.447C130.213 229.58 130.014 229.647 129.882 229.779C129.419 230.111 128.957 230.443 128.428 230.775L128.626 231.173H128.692C129.618 231.041 130.543 230.908 131.468 230.775H131.535C133.253 230.509 134.972 230.178 136.69 229.846C137.153 229.779 137.682 229.647 138.144 229.514C138.475 229.447 138.739 229.381 139.07 229.315C139.533 229.248 139.995 229.116 140.458 229.049C140.854 228.917 141.251 228.85 141.648 228.717C148.257 227.124 154.669 224.934 160.816 222.346C150.306 236.748 136.228 248.363 119.769 255.996C127.37 255.465 134.972 254.204 142.309 252.08C168.946 244.182 191.353 226.195 204.771 201.969C202.061 217.301 195.98 231.903 186.991 244.646C193.402 240.399 199.285 235.487 204.639 229.912C219.445 214.381 229.161 194.669 232.466 173.496C234.714 183.983 235.375 194.801 234.383 205.487C282.106 138.651 238.349 69.3589 220.04 51.1067C219.974 50.9741 219.908 50.9076 219.908 50.7749C219.842 50.8414 219.842 50.8414 219.842 50.9075C219.842 50.8411 219.842 50.8411 219.775 50.7749C219.775 51.5714 219.709 52.3678 219.643 53.1643C219.445 54.6908 219.247 56.151 218.982 57.6112C218.652 59.0713 218.255 60.5315 217.859 61.9917C217.396 63.3855 216.867 64.8457 216.272 66.2395C215.677 67.5669 215.016 68.9607 214.289 70.2882C213.562 71.5492 212.769 72.8766 211.91 74.0713C211.051 75.3324 210.125 76.5271 209.2 77.6554C208.208 78.8501 207.151 79.912 206.093 80.974C205.432 81.5713 204.837 82.1023 204.176 82.6333C203.648 83.0979 203.185 83.4961 202.656 83.9607C201.466 84.8899 200.277 85.7527 198.955 86.5492C197.699 87.3456 196.377 88.1421 195.055 88.8058C193.667 89.4696 192.279 90.0669 190.891 90.6642C189.503 91.1952 188.048 91.6598 186.594 92.0581C185.14 92.4563 183.62 92.7881 182.166 93.0536C180.645 93.3192 179.125 93.4518 177.671 93.5846C176.613 93.6511 175.556 93.7173 174.498 93.7173C172.978 93.7173 171.458 93.5846 170.004 93.4517C168.483 93.319 166.963 93.1198 165.509 92.7879C163.989 92.5223 162.535 92.1242 161.08 91.6596H161.014C162.468 91.527 163.923 91.394 165.377 91.1286C166.897 90.863 168.351 90.5313 169.805 90.133C171.259 89.7348 172.714 89.2702 174.102 88.7392C175.556 88.2083 176.944 87.5446 178.266 86.8808C179.654 86.2171 180.91 85.487 182.232 84.6906C183.488 83.8277 184.743 82.9649 185.933 82.0357C187.123 81.1065 188.247 80.1109 189.304 79.049C190.428 78.0534 191.419 76.9251 192.411 75.7968C193.402 74.6021 194.328 73.4074 195.187 72.2127C195.319 72.0136 195.451 71.7481 195.584 71.549C196.244 70.487 196.905 69.4251 197.5 68.3631C198.227 67.0357 198.888 65.7083 199.483 64.3145C200.078 62.9207 200.607 61.5269 201.07 60.0667C201.532 58.6729 201.863 57.2127 202.193 55.7526C202.458 54.226 202.722 52.7658 202.854 51.3056C202.986 49.7791 203.119 48.2525 203.119 46.7924C203.119 45.7304 203.052 44.6685 202.987 43.6065C202.855 42.08 202.656 40.6198 202.458 39.1596C202.193 37.6331 201.863 36.1729 201.466 34.7127C201.004 33.3189 200.541 31.8588 200.012 30.465C199.483 29.0711 198.823 27.6773 198.161 26.3499C197.434 25.0225 196.707 23.695 195.914 22.434C195.055 21.1729 194.196 19.9782 193.27 18.7835C192.279 17.6552 191.287 16.5269 190.23 15.3986C189.701 14.8676 189.106 14.2703 188.511 13.7393C185.537 11.4163 182.43 9.22602 179.324 7.23488C178.861 6.9693 178.464 6.77027 178.002 6.57115C175.82 5.17736 173.771 4.44725 171.722 3.78355L171.722 3.78319Z" fill="url(#paint0_linear_17_186)" />
  <defs>
    <linearGradient id="paint0_linear_17_186" x1="127.972" y1="0" x2="127.972" y2="255.996" gradientUnits="userSpaceOnUse">
      <stop stop-color="#FA7268" />
      <stop offset="1" stop-color="#C62368" />
    </linearGradient>
  </defs>
</svg>
  