<svg height="442.24956" viewBox="0 0 888 442.24956" width="888" xmlns="http://www.w3.org/2000/svg"><g fill="#e6e6e6"><circle cx="190.00923" cy="79.90411" r="5.54965"/><circle cx="218.10149" cy="79.90411" r="5.54965"/><circle cx="246.19376" cy="79.90411" r="5.54965"/><circle cx="274.28602" cy="79.90411" r="5.54965"/><circle cx="302.37828" cy="79.90411" r="5.54965"/><circle cx="330.47054" cy="79.90411" r="5.54965"/><circle cx="358.5628" cy="79.90411" r="5.54965"/><circle cx="386.65506" cy="79.90411" r="5.54965"/><circle cx="414.74732" cy="79.90411" r="5.54965"/><circle cx="442.83958" cy="79.90411" r="5.54965"/><circle cx="470.93185" cy="79.90411" r="5.54965"/><circle cx="499.02411" cy="79.90411" r="5.54965"/><circle cx="527.11637" cy="79.90411" r="5.54965"/><circle cx="555.20863" cy="79.90411" r="5.54965"/><circle cx="583.30089" cy="79.90411" r="5.54965"/><circle cx="611.39315" cy="79.90411" r="5.54965"/><circle cx="639.48541" cy="79.90411" r="5.54965"/><circle cx="667.57767" cy="79.90411" r="5.54965"/><circle cx="695.66993" cy="79.90411" r="5.54965"/><circle cx="723.7622" cy="79.90411" r="5.54965"/><circle cx="751.85446" cy="79.90411" r="5.54965"/><circle cx="779.94672" cy="79.90411" r="5.54965"/><circle cx="190.00923" cy="108.34899" r="5.54965"/><circle cx="218.10149" cy="108.34899" r="5.54965"/><circle cx="246.19376" cy="108.34899" r="5.54965"/><circle cx="274.28602" cy="108.34899" r="5.54965"/><circle cx="302.37828" cy="108.34899" r="5.54965"/><circle cx="330.47054" cy="108.34899" r="5.54965"/><circle cx="358.5628" cy="108.34899" r="5.54965"/><circle cx="386.65506" cy="108.34899" r="5.54965"/><circle cx="414.74732" cy="108.34899" r="5.54965"/><circle cx="442.83958" cy="108.34899" r="5.54965"/><circle cx="470.93185" cy="108.34899" r="5.54965"/><circle cx="499.02411" cy="108.34899" r="5.54965"/><circle cx="527.11637" cy="108.34899" r="5.54965"/><circle cx="555.20863" cy="108.34899" r="5.54965"/><circle cx="583.30089" cy="108.34899" r="5.54965"/><circle cx="611.39315" cy="108.34899" r="5.54965"/><circle cx="639.48541" cy="108.34899" r="5.54965"/><circle cx="667.57767" cy="108.34899" r="5.54965"/><circle cx="695.66993" cy="108.34899" r="5.54965"/><circle cx="723.7622" cy="108.34899" r="5.54965"/><circle cx="751.85446" cy="108.34899" r="5.54965"/><circle cx="779.94672" cy="108.34899" r="5.54965"/><circle cx="190.00923" cy="136.79387" r="5.54965"/><circle cx="218.10149" cy="136.79387" r="5.54965"/><circle cx="246.19376" cy="136.79387" r="5.54965"/><circle cx="274.28602" cy="136.79387" r="5.54965"/><circle cx="302.37828" cy="136.79387" r="5.54965"/><circle cx="330.47054" cy="136.79387" r="5.54965"/><circle cx="358.5628" cy="136.79387" r="5.54965"/><circle cx="386.65506" cy="136.79387" r="5.54965"/><circle cx="414.74732" cy="136.79387" r="5.54965"/><circle cx="442.83958" cy="136.79387" r="5.54965"/><circle cx="470.93185" cy="136.79387" r="5.54965"/><circle cx="499.02411" cy="136.79387" r="5.54965"/><circle cx="527.11637" cy="136.79387" r="5.54965"/><circle cx="555.20863" cy="136.79387" r="5.54965"/><circle cx="583.30089" cy="136.79387" r="5.54965"/><circle cx="611.39315" cy="136.79387" r="5.54965"/><circle cx="639.48541" cy="136.79387" r="5.54965"/><circle cx="667.57767" cy="136.79387" r="5.54965"/><circle cx="695.66993" cy="136.79387" r="5.54965"/><circle cx="723.7622" cy="136.79387" r="5.54965"/><circle cx="751.85446" cy="136.79387" r="5.54965"/><circle cx="779.94672" cy="136.79387" r="5.54965"/><circle cx="190.00923" cy="165.23874" r="5.54965"/><circle cx="218.10149" cy="165.23874" r="5.54965"/><circle cx="246.19376" cy="165.23874" r="5.54965"/><circle cx="274.28602" cy="165.23874" r="5.54965"/><circle cx="302.37828" cy="165.23874" r="5.54965"/><circle cx="330.47054" cy="165.23874" r="5.54965"/><circle cx="358.5628" cy="165.23874" r="5.54965"/><circle cx="386.65506" cy="165.23874" r="5.54965"/><circle cx="414.74732" cy="165.23874" r="5.54965"/><circle cx="442.83958" cy="165.23874" r="5.54965"/><circle cx="470.93185" cy="165.23874" r="5.54965"/><circle cx="499.02411" cy="165.23874" r="5.54965"/><circle cx="527.11637" cy="165.23874" r="5.54965"/><circle cx="555.20863" cy="165.23874" r="5.54965"/><circle cx="583.30089" cy="165.23874" r="5.54965"/><circle cx="611.39315" cy="165.23874" r="5.54965"/><circle cx="639.48541" cy="165.23874" r="5.54965"/><circle cx="667.57767" cy="165.23874" r="5.54965"/><circle cx="695.66993" cy="165.23874" r="5.54965"/><circle cx="723.7622" cy="165.23874" r="5.54965"/><circle cx="751.85446" cy="165.23874" r="5.54965"/><circle cx="779.94672" cy="165.23874" r="5.54965"/><circle cx="190.00923" cy="193.68362" r="5.54965"/><circle cx="218.10149" cy="193.68362" r="5.54965"/><circle cx="246.19376" cy="193.68362" r="5.54965"/><circle cx="274.28602" cy="193.68362" r="5.54965"/><circle cx="302.37828" cy="193.68362" r="5.54965"/><circle cx="330.47054" cy="193.68362" r="5.54965"/><circle cx="358.5628" cy="193.68362" r="5.54965"/><circle cx="386.65506" cy="193.68362" r="5.54965"/><circle cx="414.74732" cy="193.68362" r="5.54965"/><circle cx="442.83958" cy="193.68362" r="5.54965"/><circle cx="470.93185" cy="193.68362" r="5.54965"/><circle cx="499.02411" cy="193.68362" r="5.54965"/><circle cx="527.11637" cy="193.68362" r="5.54965"/><circle cx="555.20863" cy="193.68362" r="5.54965"/><circle cx="583.30089" cy="193.68362" r="5.54965"/><circle cx="611.39315" cy="193.68362" r="5.54965"/><circle cx="639.48541" cy="193.68362" r="5.54965"/><circle cx="667.57767" cy="193.68362" r="5.54965"/><circle cx="695.66993" cy="193.68362" r="5.54965"/><circle cx="723.7622" cy="193.68362" r="5.54965"/><circle cx="751.85446" cy="193.68362" r="5.54965"/><circle cx="779.94672" cy="193.68362" r="5.54965"/><circle cx="190.00923" cy="222.1285" r="5.54965"/><circle cx="218.10149" cy="222.1285" r="5.54965"/><circle cx="246.19376" cy="222.1285" r="5.54965"/><circle cx="274.28602" cy="222.1285" r="5.54965"/><circle cx="302.37828" cy="222.1285" r="5.54965"/><circle cx="330.47054" cy="222.1285" r="5.54965"/><circle cx="358.5628" cy="222.1285" r="5.54965"/><circle cx="386.65506" cy="222.1285" r="5.54965"/><circle cx="414.74732" cy="222.1285" r="5.54965"/><circle cx="442.83958" cy="222.1285" r="5.54965"/><circle cx="470.93185" cy="222.1285" r="5.54965"/><circle cx="499.02411" cy="222.1285" r="5.54965"/><circle cx="527.11637" cy="222.1285" r="5.54965"/><circle cx="555.20863" cy="222.1285" r="5.54965"/><circle cx="583.30089" cy="222.1285" r="5.54965"/><circle cx="611.39315" cy="222.1285" r="5.54965"/><circle cx="639.48541" cy="222.1285" r="5.54965"/><circle cx="667.57767" cy="222.1285" r="5.54965"/><circle cx="695.66993" cy="222.1285" r="5.54965"/><circle cx="723.7622" cy="222.1285" r="5.54965"/><circle cx="751.85446" cy="222.1285" r="5.54965"/><circle cx="779.94672" cy="222.1285" r="5.54965"/><circle cx="190.00923" cy="250.57337" r="5.54965"/><circle cx="218.10149" cy="250.57337" r="5.54965"/><circle cx="246.19376" cy="250.57337" r="5.54965"/><circle cx="274.28602" cy="250.57337" r="5.54965"/><circle cx="302.37828" cy="250.57337" r="5.54965"/><circle cx="330.47054" cy="250.57337" r="5.54965"/><circle cx="358.5628" cy="250.57337" r="5.54965"/><circle cx="386.65506" cy="250.57337" r="5.54965"/><circle cx="414.74732" cy="250.57337" r="5.54965"/><circle cx="442.83958" cy="250.57337" r="5.54965"/><circle cx="470.93185" cy="250.57337" r="5.54965"/><circle cx="499.02411" cy="250.57337" r="5.54965"/><circle cx="527.11637" cy="250.57337" r="5.54965"/><circle cx="555.20863" cy="250.57337" r="5.54965"/><circle cx="583.30089" cy="250.57337" r="5.54965"/><circle cx="611.39315" cy="250.57337" r="5.54965"/><circle cx="639.48541" cy="250.57337" r="5.54965"/><circle cx="667.57767" cy="250.57337" r="5.54965"/><circle cx="695.66993" cy="250.57337" r="5.54965"/><circle cx="723.7622" cy="250.57337" r="5.54965"/><circle cx="751.85446" cy="250.57337" r="5.54965"/><circle cx="779.94672" cy="250.57337" r="5.54965"/><circle cx="190.00923" cy="279.01825" r="5.54965"/><circle cx="218.10149" cy="279.01825" r="5.54965"/><circle cx="246.19376" cy="279.01825" r="5.54965"/><circle cx="274.28602" cy="279.01825" r="5.54965"/><circle cx="302.37828" cy="279.01825" r="5.54965"/><circle cx="330.47054" cy="279.01825" r="5.54965"/><circle cx="358.5628" cy="279.01825" r="5.54965"/><circle cx="386.65506" cy="279.01825" r="5.54965"/><circle cx="414.74732" cy="279.01825" r="5.54965"/><circle cx="442.83958" cy="279.01825" r="5.54965"/><circle cx="470.93185" cy="279.01825" r="5.54965"/><circle cx="499.02411" cy="279.01825" r="5.54965"/><circle cx="527.11637" cy="279.01825" r="5.54965"/><circle cx="555.20863" cy="279.01825" r="5.54965"/><circle cx="583.30089" cy="279.01825" r="5.54965"/><circle cx="611.39315" cy="279.01825" r="5.54965"/><circle cx="639.48541" cy="279.01825" r="5.54965"/><circle cx="667.57767" cy="279.01825" r="5.54965"/><circle cx="695.66993" cy="279.01825" r="5.54965"/><circle cx="723.7622" cy="279.01825" r="5.54965"/><circle cx="751.85446" cy="279.01825" r="5.54965"/><circle cx="779.94672" cy="279.01825" r="5.54965"/><circle cx="190.00923" cy="307.46313" r="5.54965"/><circle cx="218.10149" cy="307.46313" r="5.54965"/><circle cx="246.19376" cy="307.46313" r="5.54965"/><circle cx="274.28602" cy="307.46313" r="5.54965"/><circle cx="302.37828" cy="307.46313" r="5.54965"/><circle cx="330.47054" cy="307.46313" r="5.54965"/><circle cx="358.5628" cy="307.46313" r="5.54965"/><circle cx="386.65506" cy="307.46313" r="5.54965"/><circle cx="414.74732" cy="307.46313" r="5.54965"/><circle cx="442.83958" cy="307.46313" r="5.54965"/><circle cx="470.93185" cy="307.46313" r="5.54965"/><circle cx="499.02411" cy="307.46313" r="5.54965"/><circle cx="527.11637" cy="307.46313" r="5.54965"/><circle cx="555.20863" cy="307.46313" r="5.54965"/><circle cx="583.30089" cy="307.46313" r="5.54965"/><circle cx="611.39315" cy="307.46313" r="5.54965"/><circle cx="639.48541" cy="307.46313" r="5.54965"/><circle cx="667.57767" cy="307.46313" r="5.54965"/><circle cx="695.66993" cy="307.46313" r="5.54965"/><circle cx="723.7622" cy="307.46313" r="5.54965"/><circle cx="751.85446" cy="307.46313" r="5.54965"/><circle cx="779.94672" cy="307.46313" r="5.54965"/><circle cx="190.00923" cy="335.908" r="5.54965"/><circle cx="218.10149" cy="335.908" r="5.54965"/><circle cx="246.19376" cy="335.908" r="5.54965"/><circle cx="274.28602" cy="335.908" r="5.54965"/><circle cx="302.37828" cy="335.908" r="5.54965"/><circle cx="330.47054" cy="335.908" r="5.54965"/><circle cx="358.5628" cy="335.908" r="5.54965"/><circle cx="386.65506" cy="335.908" r="5.54965"/><circle cx="414.74732" cy="335.908" r="5.54965"/><circle cx="442.83958" cy="335.908" r="5.54965"/><circle cx="470.93185" cy="335.908" r="5.54965"/><circle cx="499.02411" cy="335.908" r="5.54965"/><circle cx="527.11637" cy="335.908" r="5.54965"/><circle cx="555.20863" cy="335.908" r="5.54965"/><circle cx="583.30089" cy="335.908" r="5.54965"/><circle cx="611.39315" cy="335.908" r="5.54965"/><circle cx="639.48541" cy="335.908" r="5.54965"/><circle cx="667.57767" cy="335.908" r="5.54965"/><circle cx="695.66993" cy="335.908" r="5.54965"/><circle cx="723.7622" cy="335.908" r="5.54965"/><circle cx="751.85446" cy="335.908" r="5.54965"/><circle cx="779.94672" cy="335.908" r="5.54965"/></g><path d="m0 341.12316h888v2.24072h-888z"/><circle cx="857.37804" cy="271.93466" fill="#6c63ff" r="28.89362"/><circle cx="869.39158" cy="309.4043" r="3.67737"/><path d="m483.52846 398.70427h115.21884v9.15773h-104.65711v68.92413h98.41609v9.15775h-98.41609v75.672h105.85731v9.15774h-116.419zm125.54053 0h12.242l54.24887 75.67195 55.44907-75.67195 75.41978-96.12077-123.90771 179.7455 63.85044 88.44458h-12.72208l-58.0895-80.4918-58.32953 80.4918h-12.48206l64.33053-88.44458zm141.86317 9.15773v-9.15775h131.30149v9.15775h-60.4899v162.91159h-10.56175v-162.91159zm-411.54723-9.15775h13.20216l182.05005 272.42053-75.23258-100.35119-108.97782-159.05567-.48008 159.05567h-10.56173zm541.78459 160.14797a3.833 3.833 0 1 1 3.77622-3.83256 3.73261 3.73261 0 0 1 -3.77622 3.83256zm10.37817-10.083h5.65146c.07708 3.06091 2.312 5.11868 5.60011 5.11868 3.67347 0 5.75421-2.2121 5.75421-6.35335v-26.23647h5.75425v26.26219c0 7.45939-4.31569 11.755-11.45708 11.755-6.7047-.00004-11.30295-4.16701-11.30295-10.54606zm30.28676-.33439h5.70284c.4881 3.52391 3.93035 5.76173 8.88824 5.76173 4.624 0 8.01483-2.39215 8.01483-5.68457 0-2.82943-2.15783-4.52707-7.06434-5.68456l-4.77809-1.15749c-6.7047-1.56905-9.76161-4.81-9.76161-10.26309 0-6.61056 5.39458-11.009 13.48645-11.009 7.52674 0 13.0241 4.39847 13.358 10.64892h-5.60008c-.53948-3.421-3.51933-5.556-7.835-5.556-4.54688 0-7.57811 2.18636-7.57811 5.53023 0 2.64936 1.95232 4.167 6.78175 5.29873l4.08448 1.00316c7.60381 1.77482 10.7378 4.86146 10.7378 10.44315 0 7.09928-5.49732 11.54918-14.28281 11.54918-8.2203.00001-13.74333-4.24413-14.15435-10.8804z" transform="translate(-156 -228.87522)"/><circle cx="119.864" cy="63.38029" fill="#6c63ff" r="10.7783"/><path d="m278.86687 281.7739a10.77979 10.77979 0 0 1 9.48819 15.89357 10.77573 10.77573 0 1 0 -17.90306-11.84047 10.7517 10.7517 0 0 1 8.41487-4.0531z" fill="#6c63ff" transform="translate(-156 -228.87522)"/><circle cx="99.72319" cy="31.6962" fill="#6c63ff" r="31.66125"/><path d="m230.87426 240.92712a31.65557 31.65557 0 0 1 43.87848-3.31975c-.25891-.24611-.51507-.49421-.78409-.73337a31.66126 31.66126 0 0 0 -42.07165 47.32561c.269.23916.54542.46449.82017.69278a31.65557 31.65557 0 0 1 -1.84291-43.96527z" fill="#6c63ff" transform="translate(-156 -228.87522)"/><path d="m286.254 341.28137 4.87038 27.59877 5.68209 54.38581s1.62346 21.91667-5.68209 22.7284-5.6821-24.35186-5.6821-24.35186l-8.11728-46.26849-3.24691-28.41049z" fill="#fbbebe" transform="translate(-156 -228.87522)"/><circle cx="100.22002" cy="38.53885" fill="#fbbebe" r="19.48148"/><path d="m84.797 46.656-3.247 18.67 21.105 4.87v-17.858z" fill="#fbbebe"/><path d="m34.47 319.397-2.435 16.234 9.741.812 5.682-13.799z" fill="#fbbebe"/><path d="m109.961 321.832 2.435 12.988h10.552v-12.176z" fill="#fbbebe"/><path d="m273.26632 368.88014-53.57409 8.11728-3.24691 38.15124-6.49383 55.19754-23.54013 80.36113 23.54013 2.43518 42.20989-107.95989 10.55247 108.77162h24.35185l1.62346-111.20681s.81173-61.69137-12.17593-65.75z" transform="translate(-156 -228.87522)"/><path d="m200.21075 562.88326-13.79939-2.43519-5.6821 27.59877s-10.55247 37.33951 3.24692 34.0926 11.3642-34.0926 11.3642-34.0926z" transform="translate(-156 -228.87522)"/><path d="m265.96076 562.88326 13.79939-2.43519 5.6821 27.59877s10.55247 37.33951-3.24692 34.0926-11.3642-34.0926-11.3642-34.0926z" transform="translate(-156 -228.87522)"/><path d="m198.58729 329.10544s-6.49383 34.0926-3.24691 42.20988 21.91667 36.52779 21.91667 36.52779l5.6821-12.17593-16.23457-31.65741 5.6821-32.46915z" fill="#fbbebe" transform="translate(-156 -228.87522)"/><path d="m262.71385 305.56531-1.62346-12.17593s-20.29321-3.24691-23.54013-8.929l-5.6821 9.74074-18.66975 4.05864s-10.55247 0-11.3642 8.11729-5.6821 24.35186-5.6821 24.35186l14.61111 4.87037 11.3642 42.20988 48.70371-7.30556-2.43513-21.91668 2.43518-5.6821 2.43519 6.49383 15.42284-3.24691s.81173-29.22223-14.61111-34.0926z" transform="translate(-156 -228.87522)"/><path d="m82.014 17.207v20.392h4.723l6.01-6.439-.805 6.439h20.875l-1.288-6.439 2.576 6.439h3.327v-20.392z" fill="#6c63ff"/><path d="m858.878 343.354h-3l1.5-71z"/><path d="m858 334.354-1.462-1.124 14.327-26.401z"/></svg>